# xmcd
# 
# Track frame offsets:
#     150
#     13928
#     31798
#     48996
#     66186
#     83246
#     95391
#     108963
#     126368
#     137739
# 
# Disc length: 2091
# 
# Revision: 12
# Processed by: cddbd v1.5.2PL0 Copyright (c) Steve Scherf et al.
# Submitted via: fre:ac v1.0.27
# 
DISCID=8008290a
DTITLE=Chely Wright - Let Me In
DYEAR=1997
DGENRE=Country
TTITLE0=Your Woman Misses Her Man
TTITLE1=Let Me In
TTITLE2=Shut Up And Drive
TTITLE3=Emma Jean's Guitar
TTITLE4=I Already Do
TTITLE5=Just Another Heartache
TTITLE6=Is It Love Yet?
TTITLE7=Before You Lie
TTITLE8=Feelin' Single And Seein' Double
TTITLE9=10 Lb. Heart
EXTD=YEAR: 1997 ID3G: 2
EXTT0=
EXTT1=
EXTT2=
EXTT3=
EXTT4=
EXTT5=
EXTT6=
EXTT7=
EXTT8=
EXTT9=
PLAYORDER=
